<?xml version="1.0" encoding="UTF-8" standalone="no"?>
<!-- Creator: CorelDRAW -->

<svg
   xml:space="preserve"
   width="2705"
   height="1956"
   style="clip-rule:evenodd;fill-rule:evenodd;image-rendering:optimizeQuality;shape-rendering:geometricPrecision;text-rendering:geometricPrecision"
   viewBox="0 0 2684.3068 1941.09"
   id="svg2"
   sodipodi:version="0.32"
   inkscape:version="1.4 (86a8ad7, 2024-10-11)"
   sodipodi:docname="Jihomoravsky_kraj.svg"
   inkscape:output_extension="org.inkscape.output.svg.inkscape"
   version="1.1"
   xmlns:inkscape="http://www.inkscape.org/namespaces/inkscape"
   xmlns:sodipodi="http://sodipodi.sourceforge.net/DTD/sodipodi-0.dtd"
   xmlns="http://www.w3.org/2000/svg"
   xmlns:svg="http://www.w3.org/2000/svg"
   xmlns:rdf="http://www.w3.org/1999/02/22-rdf-syntax-ns#"
   xmlns:cc="http://creativecommons.org/ns#"
   xmlns:dc="http://purl.org/dc/elements/1.1/"><metadata
   id="metadata441"><rdf:RDF><cc:Work
       rdf:about=""><dc:format>image/svg+xml</dc:format><dc:type
         rdf:resource="http://purl.org/dc/dcmitype/StillImage" /></cc:Work></rdf:RDF></metadata><sodipodi:namedview
   inkscape:window-height="1009"
   inkscape:window-width="1920"
   inkscape:pageshadow="2"
   inkscape:pageopacity="0.0"
   guidetolerance="10.0"
   gridtolerance="10.0"
   objecttolerance="10.0"
   borderopacity="1.0"
   bordercolor="#666666"
   pagecolor="#ffffff"
   id="base"
   showgrid="false"
   inkscape:zoom="0.22514843"
   inkscape:cx="1452.3752"
   inkscape:cy="1094.8333"
   inkscape:window-x="-8"
   inkscape:window-y="-8"
   inkscape:current-layer="svg2"
   inkscape:showpageshadow="0"
   inkscape:pagecheckerboard="1"
   inkscape:deskcolor="#d1d1d1"
   inkscape:window-maximized="1" />
 <defs
   id="defs4"><inkscape:perspective
   sodipodi:type="inkscape:persp3d"
   inkscape:vp_x="0 : 978 : 1"
   inkscape:vp_y="0 : 1000 : 0"
   inkscape:vp_z="3417.0449 : 978 : 1"
   inkscape:persp3d-origin="1708.5249 : 652 : 1"
   id="perspective443" />
  <style
   type="text/css"
   id="style6">
   
    .str1 {stroke:#007CC3;stroke-width:6.20235;stroke-linejoin:bevel}
    .str0 {stroke:#4D485B;stroke-width:8.26981;stroke-linejoin:bevel}
    .fil1 {fill:none}
    .fil2 {fill:#75C5F0}
    .fil0 {fill:#DEDEDD}
   
  </style>
 
  <metadata
   id="CorelCorpID_0Corel-Layer" />
  
 
   
   
   
   
   
   
   
   
   
   
   
   
   
   
   
   
   
   
   
   
   
   
   
   
   
   
   
   
   
   
   
   
   
   
   
   
   
   
   
   
   
   
   
   
   
   
   
   
   
   
   
   
   
   
   
   
   
   
   
   
   
   
   
   
   
   
   
   
   
   
   
   
   
   
   
   
   
   
   
   
   
   
   
   
   
   
   
   
   
   
   
   
   
   
   
   
   
   
   
   
   
   
   
   
   
   
   
   
   
   
   
   
   
   
   
   
   
   
   
   
   
   
   
   
   
   
   
   
   
   
   
   
   
   
   
   
   
   
   
   
   
   
   
   
   
   
   
   
   
   
   
   
   
   
   
   
   
   
   
   
   
   
   
   
   
   
   
   
   
   
   
   
   
   
   
   
   
   
   
   
   
   
   
   
   
   
   
   
   
   
   
   
   
   
   
   
   
   
   
   
   
   
   
   
   
   
   
   
   
   
   
   
   
   
   
   
   
   
   
   
   
   
   
   
   
   
   
   
   
   
   
   
   
   
   
   
   
   
   
   
   
   
   
   
   
   
   
   
   
   
   
   
   
   
   
   
   
   
   
   
   
   
   
   
   
   
   
   
   
   
   
   
   
   
   
   
   
   
   
   
   
   
   
   
   
   
   
   
   
   
   
   
   
   
   
   
   
   
   
   
   
   
   
   
   
   
   
   
   
   
   
   
   
   
   
   
   
   
   
   
   
   
   
   
   
   
   
   
   
   
   
   
   
   
   
   
   
   
   
   
   
   
   
   
   
   
   
   
   
   
   
   
   
   
   
   
   
   
   
   
   
   
   
   
   
   
   
   
   
   
   
   
   
   
   
   
   
   
   
   
   
   
   
   
   
   
   
   
   
   
   
   
   
   
   
   
   
   
   
   
   
   
   
   
   
   
   
   
   
   
   
   
   
   
   
   
   
   
   
   
   
   
   
   
   
   
   
   
   
  </defs>
 <g
   id="g4446"
   transform="matrix(2.3505873,0,0,2.3505873,-3450.4911,-2405.7499)"><path
     style="display:inline;fill:#fb5c0b;fill-opacity:1;stroke:none;stroke-width:6.20235;stroke-linejoin:bevel"
     d="m 2310.056,1313.1068 c -4.6588,8.0964 -14.6655,14.9773 -13.974,24.2914 1.1275,15.1402 15.8341,26.6073 18.8462,41.4955 0.9364,4.6342 -12.4,9.7501 -8.0788,11.6769 8.462,3.7739 22.0622,-10.3337 27.6527,-2.9476 6.275,8.2909 -0.5485,22.1618 -6.82,30.4562 -4.0341,5.3327 -15.4473,-0.8005 -19.5916,4.4572 -4.5088,5.7206 3.0977,15.9161 -1.1497,21.8442 -2.9746,4.1536 -12.1398,-2.8973 -15.3113,1.1146 -2.8305,3.5805 4.204,8.5323 4.0716,13.1079 -0.086,2.9289 -7.0322,5.7054 -4.6834,7.4634 4.6986,3.5161 11.8058,3.5677 17.496,2.1167 11.8585,-3.025 21.3004,-16.5373 33.4578,-15.1496 7.5103,0.8568 9.334,12.6766 10.3888,20.1588 1.206,8.5558 -8.2007,18.1429 -3.904,25.6322 2.6991,4.708 10.1931,-8.3706 15.1097,-6.084 7.0555,3.2817 5.9515,16.4693 13.2181,19.2517 9.8942,3.7904 21.2019,-3.1797 31.7361,-2.0217 4.2357,0.4653 9.6668,2.6581 10.8787,6.7415 1.9807,6.6735 -7.7881,15.9735 -2.7121,20.746 5.2835,4.9682 15.0113,-6.1379 21.5594,-3.0297 9.3844,4.4572 10.5963,21.4926 20.8421,23.185 11.5081,1.8998 20.2561,-13.4021 31.8685,-14.4522 4.2064,-0.3821 2.5784,9.014 6.2985,11.0147 5.7628,3.1 15.7086,-2.5222 19.4357,2.8539 3.7961,5.4733 -8.6625,15.0535 -3.822,19.6279 8.2897,7.8326 24.677,0.6458 33.2456,8.1666 12.0789,10.5998 15.9102,27.9411 23.8659,41.9128 v 0 c -19.6244,11.7566 -36.13,32.7862 -58.8802,35.2768 v 0 c -15.5762,1.7065 -24.4895,-24.8915 -40.1465,-24.4637 v 0 c -12.4903,0.3411 -16.1165,19.717 -26.7573,26.2838 v 0 c -4.8416,2.9875 -12.1961,3.7318 -17.0729,0.7876 v 0 c -9.3797,-5.662 -12.3227,-19.3572 -22.0493,-24.3875 v 0 c -20.1319,-10.4099 -42.2726,-22.715 -64.8329,-20.5468 v 0 c -11.984,1.1521 -12.1105,21.6367 -21.7493,28.8611 v 0 c -5.539,4.1514 -16.0907,-2.3792 -20.5913,2.8867 v 0 c -9.1899,10.7522 -9.5743,29.7636 -8.8277,31.5298 v 0 c 0.7466,1.7663 3.5958,3.9638 2.2304,5.307 v 0 c -6.9759,6.8645 -17.6636,9.3094 -24.3523,16.4658 v 0 c -1.839,1.9678 2.9593,5.7019 1.5084,7.9803 v 0 c -6.8845,10.8061 -20.4589,17.1713 -25.1493,29.1002 v 0 c -2.4027,6.1109 8.0236,12.3098 6.3594,18.6668 v 0 c -1.24,4.7373 -11.4226,2.2093 -13.02,6.8411 v 0 c -5.2566,15.2457 -1.5846,32.4967 -5.907,48.0307 v 0 c -1.4006,5.0327 -5.5519,10.4123 -10.6619,11.5069 v 0 c -4.8827,1.0443 -12.2793,-1.4721 -13.6236,-6.2867 v 0 c -3.3766,-12.0765 3.3484,-25.2302 1.3232,-37.6091 v 0 c -2.0323,-12.4129 -1.533,-30.8453 -13.2826,-35.3119 v 0 c -16.4587,-6.2575 -34.3063,12.8665 -51.7754,10.5846 v 0 c -14.621,-1.9116 -23.8601,-18.8766 -38.1916,-22.3646 v 0 c -7.3873,-1.7991 -15.9407,13.0962 -21.4434,7.8361 v 0 c -10.6877,-10.2154 -3.0719,-32.3526 -14.2706,-42.0007 v 0 c -8.2382,-7.0942 -22.3716,5.328 -32.6034,1.6397 v 0 c -11.4565,-4.1314 -16.29,-20.1272 -27.9856,-23.4979 v 0 c -5.2495,-1.5143 -5.4804,11.6734 -10.9139,12.2559 v 0 c -22.504,2.4155 -25.0145,-16.1716 -28.0641,-8.1022 v 0 c -4.1748,11.0428 -6.0957,23.2354 -12.5266,33.1425 v 0 c -7.6592,11.8011 -18.0281,21.8735 -28.9443,30.7633 v 0 c -2.4578,2.0006 -6.8646,2.3311 -9.5063,0.5789 v 0 c -4.6377,-3.0742 -4.3892,-12.686 -9.8989,-13.4384 v 0 c -4.0716,-0.5555 -0.5497,11.3053 -4.6577,11.4401 v 0 c -39.4703,1.2963 -79.4375,-0.1887 -118.265,-7.4306 v 0 c -19.2646,-3.5923 -36.4699,-14.7581 -53.4232,-24.5832 v 0 c -9.2144,-5.3409 -18.9048,-11.4858 -24.4625,-20.5643 v 0 c -2.2737,-3.7165 6.9384,-8.8898 4.3061,-12.359 v 0 c -2.3886,-3.1481 -8.1667,4.9249 -11.5351,2.848 v 0 c -5.0714,-3.1269 -3.7294,-12.618 -8.9531,-15.4848 v 0 c -3.8419,-2.1084 -9.0598,6.1168 -12.6543,3.6157 v 0 c -5.4933,-3.8243 -2.9324,-14.3843 -8.3835,-18.2637 v 0 c -5.13,-3.652 -13.8381,2.6172 -18.8766,-1.1673 v 0 c -3.5489,-2.6675 3.754,-11.8703 -0.4349,-13.3236 v 0 c -9.7184,-3.3684 -21.5078,-1.976 -30.7821,2.4823 v 0 c -6.8739,3.304 -6.0136,16.2021 -13.2333,18.6879 v 0 c -10.4802,3.6099 -23.1381,2.0394 -33.1636,-2.6921 v 0 c -15.1707,-7.1587 -24.3242,-23.8648 -39.257,-31.5005 v 0 c -14.0198,-7.1646 -33.5832,-6.5364 -37.9595,-7.9944 l 23.3854,-30.8711 c 4.4514,-2.9875 8.1573,-10.2353 13.3482,-8.9472 7.7694,1.9268 9.4747,17.8488 17.3788,16.5982 7.1166,-1.1252 1.4463,-15.8505 6.9712,-20.4624 5.6832,-4.742 14.9046,-6.0113 21.9204,-3.6556 6.6782,2.2433 7.4764,18.2004 14.0877,15.7649 9.1594,-3.3754 6.4778,-19.2739 13.5849,-25.9533 4.2439,-3.9907 12.6438,0.5556 17.2346,-3.032 6.4403,-5.0338 5.7723,-17.1901 13.1372,-20.7202 8.5359,-4.0927 20.6511,6.2188 28.4099,0.7876 6.3911,-4.4748 -2.6206,-18.3094 3.4821,-23.1475 4.6846,-3.713 10.8694,9.7688 16.3615,7.4072 5.8144,-2.4999 2.7215,-13.1466 7.2455,-17.5581 3.8255,-3.7341 10.5283,-6.779 15.3863,-4.5592 4.1865,1.9104 0.5813,9.9622 3.7305,13.3236 4.4936,4.8006 11.0815,7.5408 17.4233,9.2766 3.2489,0.8896 7.5936,0.6153 9.9529,-1.7768 3.761,-3.8149 1.0091,-14.3678 6.343,-14.7616 9.7383,-0.7161 16.9826,10.5342 26.571,12.3285 5.4616,1.022 11.0768,-1.9702 16.1071,-4.3166 5.1756,-2.4155 12.3274,-4.3529 14.0713,-9.7852 1.492,-4.6506 -10.9139,-10.492 -6.7427,-13.02 11.1588,-6.7661 27.4898,0.4172 38.651,-6.3289 5.7992,-3.5056 0.3235,-14.5401 4.5732,-19.8178 2.8504,-3.5407 10.2236,0.7348 13.4044,-2.507 6.0559,-6.173 10.4873,-14.5882 11.7261,-23.1358 0.6962,-4.8065 -1.7404,-11.9265 -6.4625,-13.0728 -4.9483,-1.2013 -7.6955,8.0354 -12.7786,8.4116 -3.2606,0.2426 6.5129,-4.7068 5.8226,-7.89 -1.2095,-5.5613 -13.0153,-8.3952 -10.4896,-13.4947 4.3787,-8.8359 18.9751,-8.0272 25.0216,-15.8024 2.8434,-3.6568 1.2939,-10.526 -2.0252,-13.7596 -5.0104,-4.8803 -17.7374,-0.6329 -19.6701,-7.3627 -2.9899,-10.4064 2.0838,-22.6517 8.5405,-31.3352 3.6274,-4.878 17.6378,2.0194 17.7843,-4.0564 0.2004,-8.2616 -17.6413,-9.5824 -17.2534,-17.8429 0.4911,-10.4064 14.594,-15.309 19.2845,-24.6031 1.4486,-2.8714 -4.6354,-7.4576 -2.0979,-9.4406 14.1393,-11.0475 36.0386,-11.814 47.2443,-25.8209 5.723,-7.1529 -3.2184,-18.0539 -4.9389,-27.0585 -2.3839,-12.4797 -8.2675,-24.7274 -7.392,-37.3876 0.6481,-9.354 13.197,-16.2911 11.7706,-25.5595 -1.3818,-8.9707 -17.0752,-10.8248 -18.7606,-19.7404 -1.015,-5.3714 11.2702,7.2818 15.8305,4.279 8.3847,-5.5226 17.8745,-15.5012 16.2138,-25.4071 -1.6701,-9.9692 -20.2397,-9.4688 -23.6772,-18.9716 -2.8773,-7.9557 5.4136,-16.0321 8.121,-24.0453 v 0 c 2.9464,2.2562 5.9726,9.1336 8.83,6.7767 4.7924,-3.9533 1.4123,-12.7926 4.7725,-18.0023 1.7041,-2.6359 5.9574,-4.292 8.8781,-3.1528 3.1961,1.2459 2.0463,8.9273 5.4675,8.734 7.6287,-0.4267 12.9134,-9.6435 20.528,-10.1661 8.9472,-0.6201 18.7969,12.3203 26.0002,6.977 8.1045,-6.0101 0.2062,-20.9206 4.8498,-29.8702 1.8577,-3.5911 7.8455,-2.3651 11.8843,-2.4073 20.6382,-0.2016 41.5846,-1.9128 61.897,1.6936 18.8614,3.3566 36.1851,12.6321 54.2788,18.9481 v 0 c -1.7545,6.7215 1.322,17.9414 -5.2589,20.1799 -8.2674,2.8116 -17.6425,-15.9724 -24.1625,-10.1579 -8.5311,7.6111 -11.3077,26.544 -2.8187,34.2044 12.1363,10.9491 32.5483,3.6953 48.5371,7.0614 3.7915,0.797 -8.9988,-2.1354 -11.623,0.722 -3.2395,3.5301 0.3891,10.1509 -2.1131,14.2366 -1.6069,2.623 -8.5125,0.2379 -8.6519,3.318 -0.613,13.6541 1.5095,27.8286 6.6782,40.4806 2.6722,6.5469 14.9199,7.2525 15.7157,14.2893 0.5602,4.9447 -10.2857,2.8199 -13.3505,6.7391 -2.8387,3.6286 -5.58,10.1146 -2.5715,13.6072 8.6578,10.0536 20.0627,20.16 33.2058,21.952 7.6123,1.0372 13.8076,-8.2827 17.462,-15.0347 2.6219,-4.844 -2.5081,-11.4647 -0.3691,-16.5361 1.5236,-3.6133 10.0325,-2.3288 9.9844,-6.2469 -0.1,-8.3952 -5.0924,-16.4271 -10.3185,-23.001 -5.1569,-6.486 -26.8101,-10.4216 -19.8717,-14.9457 7.6874,-5.0104 15.3734,-10.0255 23.0596,-15.0359 5.893,-3.8431 15.4485,-1.0747 20.8363,3.4493 4.9964,4.1982 1.8225,13.4525 5.6105,18.7711 3.8325,5.3831 13.1864,5.696 16.079,11.637 3.0367,6.2387 -3.7176,14.8062 -0.2813,20.8339 2.6453,4.6377 11.7003,1.1673 15.1519,5.2366 5.2999,6.2492 1.1416,20.0451 8.7937,22.9775 5.7172,2.1893 2.48,-13.8158 7.9475,-16.5572 3.4036,-1.7065 7.1517,5.2413 7.0041,9.0457 -0.4173,10.724 -15.1976,22.6142 -8.5711,31.0669 11.2702,14.3737 37.2118,9.1734 50.2095,22.013 9.7384,9.6211 7.9253,26.2194 11.8855,39.3367 v 0 z"
     class="fil2 str1"
     id="_155165616" /></g>
</svg>
